<svg id="Line" height="512" viewBox="0 0 64 64" width="512" xmlns="http://www.w3.org/2000/svg"><path d="m59 17.25c1.28984-.00673 1.3318-1.98178-.00007-1.99999.00007-.00001-4.99993-.00001-4.99993-.00001v-2.25c0-1.6543-1.3457-3-3-3h-2.25v-5c0-.55225-.44775-1-1-1s-1 .44775-1 1v5h-3.25v-2c-.02343-1.29886-1.97259-1.32853-2 .00006 0-.00006 0 1.99994 0 1.99994h-3.25v-5c-.01978-1.2948-1.97408-1.33104-2 .00006 0-.00006 0 4.99994 0 4.99994h-3.25v-2c-.01734-1.29649-1.97616-1.32889-2 .00006 0-.00006 0 1.99994 0 1.99994h-3.25v-5c0-.55225-.44775-1-1-1s-1 .44775-1 1v5h-3.25v-2c0-.55225-.44775-1-1-1s-1 .44775-1 1v2h-3.25s0-5 0-5c0-.55225-.44775-1-1-1s-1 .44775-1 1v5h-2.25c-1.6543 0-3 1.3457-3 3v2.25h-5c-1.29762.02607-1.33034 1.97048.00006 2-.00006 0 4.99994 0 4.99994 0v3.25h-2c-.55225 0-1 .44775-1 1s.44775 1 1 1h2v3.25s-5 0-5 0c-.55225 0-1 .44775-1 1s.44775 1 1 1h5v3.25h-2c-1.29685.01739-1.32859 1.97622.00006 2-.00006 0 1.99994 0 1.99994 0v3.25s-5 0-5 0c-1.29278.01349-1.33107 1.97788.00006 1.99999-.00006 0 4.99994 0 4.99994 0v3.25h-2c-1.29451.01126-1.32892 1.97982.00006 1.99999-.00006 0 2.99994 0 2.99994 0 .55225 0 1-.44775 1-1v-29.49998c0-.55127.44873-1 1-1h38c.55127 0 1 .44873 1 1v38c0 .55127-.44873 1-1 1h-38c-.55127 0-1-.44873-1-1v-3.25c0-.55225-.44775-1-1-1h-6c-1.2904.00711-1.33141 1.98165.00006 1.99999-.00006.00001 4.99994.00001 4.99994.00001v2.25c0 1.6543 1.3457 3 3 3h2.25v5c0 .55225.44775 1 1 1s1-.44775 1-1v-5h3.25v2c.02321 1.29906 1.97279 1.3283 2-.00006v-1.99994h3.25v5c.01956 1.29502 1.97428 1.33079 2-.00006v-4.99994h3.25v2c0 .55225.44775 1 1 1s1-.44775 1-1v-2h3.25v5c.01323 1.29261 1.97802 1.33114 1.99999-.00006v-4.99994h3.25v2c.011 1.29435 1.97996 1.32899 1.99999-.00006v-1.99994h3.25v5c0 .55225.44775 1 1 1s1-.44775 1-1v-5s2.25 0 2.25 0c1.6543 0 3-1.3457 3-3v-2.25h5c1.29708-.02581 1.33073-1.97052-.00006-2h-4.99994v-3.25h2c.55225 0 1-.44775 1-1s-.44775-1-1-1h-2s0-3.25 0-3.25h5c1.29464-.01952 1.33111-1.97422-.00006-2h-4.99994v-3.25h2c1.29633-.01708 1.32896-1.9763-.00006-2h-1.99994v-3.25h5c1.29222-.01316 1.33146-1.97798-.00006-1.99999h-4.99994v-3.25h2c.55225 0 1-.44775 1-1s-.44775-1-1-1h-2s0-3.25 0-3.25h5z"/><path d="m15.04498 14.04498c-1.31442.02232-1.31423 1.97786.00004 2 1.31439-.02229 1.3142-1.9779-.00004-2z"/><path d="m48 20.99854c.55225 0 1-.44775 1-1v-3.99854c0-.55225-.44775-1-1-1h-27c-.26514 0-.51953.10547-.70703.29297l-5 5c-.1875.1875-.29297.44189-.29297.70703v27c0 .55225.44775 1 1 1h32c.55225 0 1-.44775 1-1v-23.00146c-.02775-1.31531-1.97433-1.31515-2 .00004 0-.00004 0 22.00142 0 22.00142h-30v-25.58594s4.41406-4.41406 4.41406-4.41406h25.58594s0 2.99854 0 2.99854c0 .55225.44775 1 1 1z"/><path d="m33.5 39c.55225 0 1-.44775 1-1v-8c-.23385-6.61499-9.76525-6.61804-10.00001.00008 0-.00008 0 7.99992 0 7.99992.02355 1.31311 1.97657 1.31581 2-.00004v-4.99996h6v5c0 .55225.44775 1 1 1zm-7-8v-1c0-1.6543 1.3457-3 3-3s3 1.3457 3 3v1z"/><path d="m37.5 26v12c.02121 1.31072 1.97745 1.31727 2-.00005v-11.99995c-.02121-1.31072-1.97745-1.31727-2 0z"/></svg>